<?xml version="1.0" encoding="UTF-8"?>
<svg width="234px" height="73px" viewBox="0 0 234 73" version="1.1" xmlns="http://www.w3.org/2000/svg" xmlns:xlink="http://www.w3.org/1999/xlink">
    <!-- Generator: Sketch 55.2 (78181) - https://sketchapp.com -->
    <title>Group 27</title>
    <desc>Created with Sketch.</desc>
    <defs>
        <polygon id="path-1" points="0 0.686 72 0.686 72 72.686 0 72.686"></polygon>
    </defs>
    <g id="Primary-Pages" stroke="none" stroke-width="1" fill="none" fill-rule="evenodd">
        <g id="Homepage" transform="translate(-84.000000, -86.000000)">
            <g id="Group-27" transform="translate(84.000000, 86.000000)">
                <g id="Group-3">
                    <mask id="mask-2" fill="white">
                        <use xlink:href="#path-1"></use>
                    </mask>
                    <g id="Clip-2"></g>
                    <path d="M38.5247228,4.15054934 C31.2994813,5.27724606 24.7463951,9.3778246 20.484462,15.3359302 C21.8030743,14.876863 23.1548089,14.5131715 24.5288155,14.248303 C27.9975253,12.4855771 31.7266454,11.5927231 35.6145243,11.5927231 C37.7566269,11.5927231 39.8941608,11.8748282 41.9717318,12.4332928 C45.3182316,12.4493803 48.5687907,13.0153141 51.6702993,14.1184542 C48.4088897,9.53352823 43.8317232,6.04714591 38.5247228,4.15054934 L38.5247228,4.15054934 Z M18.7832294,18.0363252 C18.6912863,18.2029453 18.6010565,18.3707145 18.5131109,18.5384837 C18.7718079,18.2885536 19.0356446,18.0443689 19.3046209,17.8059298 C19.129872,17.8806216 18.9556941,17.9576115 18.7832294,18.0363252 L18.7832294,18.0363252 Z M48.1027935,15.0250975 C50.9741589,16.7315173 53.4903155,19.0119147 55.4782278,21.7128843 C54.939704,20.0323193 54.2389949,18.4051876 53.3778137,16.8395331 C51.6720126,16.0512476 49.910246,15.4462442 48.1027935,15.0250975 L48.1027935,15.0250975 Z M54.711845,15.3962581 C62.1586637,19.0245548 67.65469,25.4991828 70.0691953,33.2705749 C70.1120259,32.6408657 70.1337267,32.0088584 70.1337267,31.375702 C70.1337267,16.1839691 57.8487603,3.82420373 42.7489649,3.82420373 C42.6690144,3.82420373 42.589635,3.82477828 42.5102556,3.82535283 C47.5785466,6.39072809 51.8239185,10.3970801 54.7084186,15.3928108 L54.711845,15.3962581 Z M29.3292724,2.56363636 C14.1860753,2.56363636 1.86627326,14.9584494 1.86627326,30.1938482 C1.86627326,31.5509404 1.96392709,32.8999887 2.15695046,34.2306515 C4.59201447,26.5425694 10.0971779,20.1259713 17.4526246,16.5878793 L17.4566221,16.5850065 C21.2548422,10.0259194 27.5092562,5.17267757 34.6796745,3.0876279 C32.9264741,2.73887476 31.137296,2.56363636 29.3292724,2.56363636 L29.3292724,2.56363636 Z M3.07124161,38.3139935 C4.95807357,44.4984726 9.00128492,49.8504256 14.3733879,53.3712811 L14.1392471,52.7720232 C14.100414,52.6697529 14.062152,52.5628862 14.02389,52.4571687 C13.8045972,51.8521653 13.6161424,51.2793368 13.4493885,50.7134029 L13.4493885,50.7134029 L13.3979917,50.5410373 C13.339171,50.3382204 13.2866321,50.1440218 13.2346643,49.9492486 L13.186694,49.7682647 C13.134155,49.5660223 13.0833294,49.3620563 13.0353591,49.1586649 L13.0033789,49.0207724 C12.9571218,48.8242755 12.913149,48.6277787 12.8714605,48.4301328 L12.8543283,48.3479718 C12.6024842,47.1391142 12.4243088,45.8992307 12.3243706,44.6604963 C11.3969447,42.0123855 10.92695,39.2441934 10.92695,36.4306116 C10.92695,31.8462601 12.1861705,27.3653281 14.5709799,23.4623955 C14.9438919,22.1150707 15.4121734,20.7964736 15.971827,19.5180951 C9.20287441,23.6014371 4.46866226,30.4380329 3.07124161,38.3139935 L3.07124161,38.3139935 Z M59.3878075,43.2011339 C59.3878075,46.7173929 58.7790415,50.157811 57.5786418,53.425289 C57.3941846,53.9280221 57.1943083,54.4267334 56.9812973,54.9214227 C63.0798077,51.1966013 67.4896493,45.2551577 69.2771142,38.2393017 C68.096702,29.9019757 63.2899634,22.6568734 56.1994956,18.343136 C57.4170276,21.1285647 58.1896921,24.0737189 58.5032123,27.1337836 C59.6967591,30.0990471 60.3020987,33.2257598 60.3020987,36.4306116 C60.3020987,38.684005 59.9942892,40.931653 59.3866654,43.1126528 L59.3878075,43.2011339 Z M21.1686099,56.5830275 L21.2411364,56.6048605 C20.9401799,56.3871052 20.6529291,56.16935 20.3685338,55.9441255 L20.3102841,55.8987359 C19.967068,55.6235254 19.6564032,55.3632533 19.3531623,55.0949375 L19.3017656,55.0512715 C18.8203493,54.6232302 18.3566364,54.1779523 17.9214772,53.7275034 L17.7747109,53.5729489 C17.5365726,53.3224442 17.3058583,53.0707903 17.0825679,52.813391 C17.0203208,52.7444447 16.9523628,52.664582 16.8832627,52.5829956 C16.6850997,52.3508765 16.489221,52.1124374 16.2973397,51.8699764 L16.0843287,51.5976387 C15.9084376,51.3695415 15.7388283,51.1391461 15.5720744,50.9064525 L15.3761957,50.6295183 C15.4972636,51.0150428 15.6251844,51.3936727 15.7582449,51.7602369 C15.7599581,51.7648333 15.7611003,51.7682807 15.7628135,51.7723025 L16.6137153,53.8590758 C16.6822443,54.009034 16.7541998,54.1607157 16.8261552,54.3106738 L16.9397992,54.5479639 C17.0077571,54.6870055 17.0774283,54.8260471 17.1476705,54.9650887 C17.2761624,55.0282894 17.4046543,55.0914902 17.5337172,55.1535418 L17.752439,55.2558121 C17.7741398,55.2655795 17.7958407,55.2759214 17.8175415,55.2856888 C17.9140532,55.3310784 18.0094227,55.3747444 18.1042212,55.4172612 C18.1047923,55.4178358 18.1059344,55.4184103 18.1065055,55.4184103 C18.1093609,55.420134 18.1127873,55.4218576 18.1162138,55.4230067 C18.1184981,55.4241558 18.1207824,55.425305 18.1224956,55.4258795 C18.1242088,55.4270286 18.1264931,55.4276032 18.1282063,55.4287523 C18.1316328,55.4299014 18.1344882,55.4310505 18.1379146,55.4327741 C18.1390568,55.4333487 18.1401989,55.4339232 18.1413411,55.4339232 C18.1447675,55.4362214 18.1487651,55.4379451 18.1527626,55.4396688 C18.1533337,55.4396688 18.1539047,55.4396688 18.1544758,55.4402433 C18.1584733,55.441967 18.1630419,55.4442652 18.1676105,55.4459888 C18.1676105,55.4459888 18.1676105,55.4459888 18.1676105,55.4465634 C18.1721791,55.448287 18.1767477,55.4505852 18.1813163,55.4523089 C18.1813163,55.4528835 18.1813163,55.4528835 18.1813163,55.4528835 C18.1858849,55.4540326 18.1910246,55.4563308 18.1950221,55.458629 L18.4588588,55.5735394 C18.5924904,55.6321437 18.7318327,55.690748 18.8717461,55.7487778 L19.137867,55.8585173 C19.2846333,55.9176961 19.4251178,55.971704 19.5656022,56.0257119 L19.8357207,56.1291313 C20.0458764,56.2066958 20.264027,56.2848349 20.4827488,56.3601013 L21.1686099,56.5830275 Z M56.9293295,48.939186 C56.567839,49.5602768 56.1783658,50.1670039 55.7620521,50.7587926 L55.7260743,50.8087786 C55.274925,51.447106 54.7746633,52.086008 54.2487032,52.6956078 L54.1967354,52.7559358 C53.6776281,53.3540445 53.1196878,53.9372149 52.5394756,54.4882104 L52.489221,54.5364728 C52.299053,54.7151585 52.1066007,54.8921206 51.9107219,55.0650608 L51.8461905,55.1213669 C51.2676914,55.6309946 50.6515015,56.1233858 50.0153238,56.5853257 L49.8971113,56.6715085 C49.2603626,57.1254047 48.6207586,57.5385077 47.9691619,57.9211594 L47.7772807,58.0308989 C47.3998001,58.247505 47.0120402,58.4554929 46.6197116,58.6531388 C47.1159758,58.5824689 47.61224,58.4974352 48.1022224,58.4003359 C48.5893495,58.3032366 49.0827583,58.1906243 49.5698853,58.0642229 C51.1477657,57.6568654 52.6970923,57.1041463 54.179032,56.4192801 C54.8157807,55.2454701 55.3697235,54.020525 55.8277257,52.7743214 C56.2885833,51.5212232 56.6563556,50.2405465 56.9293295,48.939186 L56.9293295,48.939186 Z M27.2688336,57.7930343 C29.9368962,58.8525084 32.7448722,59.3897146 35.6145243,59.3897146 C37.2318089,59.3897146 38.8588017,59.2133271 40.4503879,58.8668722 C40.9055347,58.7663256 41.3686765,58.6485424 41.8266787,58.5175445 L42.0528244,58.4537692 C42.2595536,58.3917176 42.4737068,58.3256441 42.6872888,58.2561233 L42.8323419,58.2061373 C43.2612192,58.0613501 43.6741065,57.9090938 44.0641508,57.7516665 L44.2137724,57.6919131 C44.4113644,57.6097521 44.6169514,57.5218457 44.8225384,57.4304919 L44.9955742,57.3512037 C45.633465,57.0610549 46.257079,56.7416039 46.8589921,56.396298 L47.0428782,56.291155 C47.6333698,55.9447001 48.2261457,55.5608993 48.7909389,55.1587128 L48.920573,55.0650608 C49.5127778,54.6352958 50.0821396,54.1796759 50.6160948,53.7085432 L50.6640651,53.6671754 C50.861086,53.4936607 51.0375482,53.331637 51.2128682,53.166166 L51.2711179,53.1104344 C51.7953648,52.6122977 52.3110455,52.0739424 52.7913197,51.5206487 L52.8455718,51.457448 C53.3258459,50.9012815 53.7889878,50.3094928 54.2150098,49.7067876 L54.2578404,49.6470342 C55.7283586,47.5579627 56.8425261,45.2293029 57.5489459,42.7501104 L57.5552277,42.7300011 C58.1394375,40.6754027 58.4358254,38.5553054 58.4358254,36.4306116 C58.4358254,33.4262785 57.8601818,30.4954881 56.7254557,27.7198268 L56.7248846,27.7192522 C54.0408319,21.1607397 48.38776,16.1357067 41.6016752,14.2770306 L41.5799743,14.2712851 C39.6314662,13.7398244 37.6247085,13.4703594 35.6145243,13.4703594 C31.9807738,13.4703594 28.497216,14.3143765 25.2603626,15.9800031 L25.2580783,15.9811522 C21.5512302,17.8898144 18.4285918,20.779237 16.2270975,24.3374384 L16.2253843,24.3403111 C13.9799172,27.9720551 12.7932232,32.1524964 12.7932232,36.4306116 C12.7932232,39.0695295 13.240375,41.6647815 14.123257,44.1462721 C14.1752249,44.2922084 14.229477,44.43757 14.2848713,44.5817826 C14.3356969,44.7162278 14.3865226,44.8449275 14.4379194,44.9736272 L14.4681864,45.048319 C14.549279,45.2517104 14.6360824,45.4556764 14.7251701,45.660217 C14.7839909,45.7929385 14.846238,45.930831 14.9101984,46.0687235 C15.0067101,46.2784351 15.1060772,46.4852738 15.2077285,46.6892398 C15.2768286,46.8265578 15.3453576,46.9627266 15.4155999,47.098321 C15.5075429,47.2729848 15.6034836,47.4493723 15.6999952,47.6240361 C15.7873697,47.7791652 15.8775996,47.9400398 15.971827,48.0986162 C16.0517775,48.2347851 16.131728,48.3663575 16.2116785,48.4967808 C16.34531,48.7128124 16.4606672,48.8943709 16.5800219,49.0753548 C16.6771046,49.2218656 16.7741874,49.36378 16.8712702,49.5056944 L17.0865655,49.8096324 C17.2401846,50.0233658 17.3960881,50.2359501 17.5577024,50.4456617 L17.7587208,50.7019119 C17.9346119,50.9242636 18.1156427,51.144317 18.3000999,51.3609232 C18.361205,51.4321677 18.4194546,51.5011139 18.4799886,51.5694856 C18.6935706,51.8148194 18.9054395,52.0452148 19.1201637,52.2715883 L19.2543663,52.4129281 C19.662685,52.8357985 20.0921334,53.2483269 20.5370009,53.6441934 L20.5918241,53.6907321 C20.8659401,53.9326185 21.1531909,54.1739304 21.4455813,54.4083477 L21.5112549,54.4594828 C21.8150669,54.7002202 22.1103127,54.9231464 22.4112692,55.1386034 L21.9292819,55.9458492 L22.4683767,55.1793966 C23.9548851,56.2377217 25.5641746,57.1150628 27.2528435,57.7867142 L27.2688336,57.7930343 Z M18.7689526,57.729259 C23.0588683,64.1619446 29.8780755,68.5842724 37.5230572,69.781639 C43.5530386,68.0757937 48.8743159,64.2647895 52.4949317,59.1294425 C51.6857184,59.4172931 50.8633703,59.668947 50.0341693,59.8832549 C49.5133489,60.0177001 48.9851045,60.1389306 48.464284,60.2417754 C47.6676343,60.4009264 46.8567078,60.5273279 46.0537762,60.6175325 C45.5146814,60.6790096 44.9618807,60.7255483 44.4130776,60.7565742 C43.4776567,60.8077093 42.5559416,60.815753 41.6507876,60.7812799 C41.3384096,60.7697889 41.0254604,60.7519777 40.7136535,60.7301448 C39.0346928,61.0863671 37.3197544,61.267351 35.6145243,61.267351 C32.5489935,61.267351 29.5479941,60.700268 26.693761,59.5833387 C26.541284,59.5695495 26.389378,59.553462 26.237472,59.5373745 L26.0410222,59.5166907 C25.8611336,59.4965813 25.6766763,59.4741738 25.491648,59.4494681 L25.278637,59.4201659 C25.0947509,59.3943111 24.9142912,59.3678817 24.7332604,59.3403032 L24.547661,59.3087028 C23.9560272,59.2116035 23.3643935,59.0943948 22.782468,58.9616733 L22.5403322,58.9059417 C22.3832865,58.8680213 22.2313806,58.8301009 22.0800457,58.7910313 L21.7728073,58.710594 C21.6311807,58.6726736 21.4895541,58.6341786 21.3490696,58.5939599 L21.0389759,58.5037553 C20.8779327,58.456642 20.7465854,58.4175724 20.6152382,58.3762047 L19.8814067,58.137191 C19.6466949,58.0567537 19.4154095,57.9740182 19.1875506,57.8901336 L18.9037263,57.7809687 C18.8586113,57.7637321 18.8140675,57.7464956 18.7689526,57.729259 L18.7689526,57.729259 Z M55.5142055,57.8625551 C52.4252606,63.2731125 47.6619236,67.5765079 42.0585352,70.1143047 C56.9059154,69.9879032 69.0087089,58.0642229 69.5380955,43.2246905 C66.7712369,49.5798116 61.8457146,54.7668682 55.518203,57.8591078 L55.5142055,57.8625551 Z M2.6526436,42.4674308 C2.6457907,42.71219 2.64236425,42.9569492 2.64236425,43.2011339 C2.64236425,58.423318 14.952458,70.8083636 30.0825203,70.8083636 C31.0681959,70.8083636 32.050445,70.7555048 33.024699,70.6515109 C25.7217913,68.3573243 19.4730881,63.2415121 15.7753771,56.3721669 L15.7708085,56.3669959 C9.97611003,53.3218696 5.35211536,48.3853177 2.6526436,42.4674308 L2.6526436,42.4674308 Z M30.0825203,72.686 C13.9228097,72.686 0.776662066,59.4592354 0.776662066,43.2011339 C0.776662066,41.6010062 0.905153952,39.9974312 1.1581402,38.4329257 L1.15756912,38.4312021 L1.1581402,38.430053 C0.389473183,35.7664293 0,32.9970881 0,30.1938482 C0,13.9231065 13.156998,0.686 29.3292724,0.686 C32.537572,0.686 35.6899062,1.20367147 38.7028982,2.2257997 L38.7046114,2.22522515 L38.7063247,2.2257997 C40.0357874,2.04079392 41.3943749,1.94714192 42.7489649,1.94714192 C58.8778375,1.94714192 72,15.1486262 72,31.375702 C72,33.7302166 71.7224575,36.0732402 71.1753676,38.3421465 L71.1753676,38.3432956 L71.1747966,38.3455938 C71.3386951,39.620525 71.4220721,40.9207365 71.4220721,42.2123296 C71.4220721,58.633604 58.143435,71.9930901 41.821539,71.9930901 C40.4246895,71.9930901 39.0181316,71.8936926 37.6384143,71.6971958 L37.6367011,71.6977703 L37.6349879,71.6971958 C35.1827916,72.3539089 32.6432209,72.686 30.0825203,72.686 L30.0825203,72.686 Z" id="Fill-1" fill="#FFFFFF" mask="url(#mask-2)"></path>
                </g>
                <polygon id="Fill-4" fill="#FFFFFF" points="91.185 66.404 93.458 66.404 93.458 58.03 91.185 58.03"></polygon>
                <path d="M105.5757,66.4029 L102.6087,66.4029 L99.5507,60.5029 L99.4997,60.5029 C99.5717,61.4319 99.6087,62.1399 99.6087,62.6289 L99.6087,66.4029 L97.6047,66.4029 L97.6047,58.0289 L100.5587,58.0289 L103.6057,63.8479 L103.6407,63.8479 C103.5877,63.0059 103.5597,62.3269 103.5597,61.8159 L103.5597,58.0289 L105.5757,58.0289 L105.5757,66.4029 Z" id="Fill-6" fill="#FFFFFF"></path>
                <polygon id="Fill-7" fill="#FFFFFF" points="113.4146 66.4029 111.1526 66.4029 111.1526 59.8789 109.1066 59.8789 109.1066 58.0289 115.4526 58.0289 115.4526 59.8789 113.4146 59.8789"></polygon>
                <polygon id="Fill-8" fill="#FFFFFF" points="123.9565 66.4029 118.9855 66.4029 118.9855 58.0289 123.9565 58.0289 123.9565 59.8449 121.2475 59.8449 121.2475 61.1629 123.7565 61.1629 123.7565 62.9779 121.2475 62.9779 121.2475 64.5579 123.9565 64.5579"></polygon>
                <path d="M130.019,63.355 L130.019,66.403 L127.757,66.403 L127.757,58.029 L130.5,58.029 C132.776,58.029 133.915,58.854 133.915,60.502 C133.915,61.472 133.44,62.224 132.493,62.754 L134.933,66.403 L132.367,66.403 L130.593,63.355 L130.019,63.355 Z M130.019,61.656 L130.443,61.656 C131.234,61.656 131.627,61.305 131.627,60.606 C131.627,60.03 131.241,59.743 130.466,59.743 L130.019,59.743 L130.019,61.656 Z" id="Fill-9" fill="#FFFFFF"></path>
                <polygon id="Fill-10" fill="#FFFFFF" points="138.03 66.404 140.303 66.404 140.303 58.03 138.03 58.03"></polygon>
                <path d="M152.2827,62.2046 C152.2827,63.6146 151.9377,64.6846 151.2467,65.4196 C150.5537,66.1506 149.5437,66.5176 148.2107,66.5176 C146.8957,66.5176 145.8907,66.1486 145.1877,65.4126 C144.4877,64.6756 144.1377,63.6026 144.1377,62.1926 C144.1377,60.7996 144.4857,59.7336 145.1827,59.0006 C145.8817,58.2656 146.8927,57.8966 148.2207,57.8966 C149.5547,57.8966 150.5647,58.2626 151.2517,58.9926 C151.9397,59.7216 152.2827,60.7926 152.2827,62.2046 M146.5207,62.2046 C146.5207,63.8236 147.0847,64.6336 148.2107,64.6336 C148.7827,64.6336 149.2087,64.4356 149.4837,64.0426 C149.7617,63.6496 149.8997,63.0376 149.8997,62.2046 C149.8997,61.3686 149.7607,60.7506 149.4787,60.3516 C149.1977,59.9536 148.7807,59.7526 148.2207,59.7526 C147.0887,59.7526 146.5207,60.5706 146.5207,62.2046" id="Fill-11" fill="#FFFFFF"></path>
                <path d="M158.3911,63.355 L158.3911,66.403 L156.1291,66.403 L156.1291,58.029 L158.8721,58.029 C161.1481,58.029 162.2871,58.854 162.2871,60.502 C162.2871,61.472 161.8131,62.224 160.8661,62.754 L163.3051,66.403 L160.7391,66.403 L158.9631,63.355 L158.3911,63.355 Z M158.3911,61.656 L158.8161,61.656 C159.6071,61.656 160.0001,61.305 160.0001,60.606 C160.0001,60.03 159.6131,59.743 158.8391,59.743 L158.3911,59.743 L158.3911,61.656 Z" id="Fill-12" fill="#FFFFFF"></path>
                <path d="M171.8774,63.8599 C171.8774,64.3789 171.7454,64.8389 171.4814,65.2429 C171.2174,65.6469 170.8394,65.9589 170.3404,66.1819 C169.8464,66.4059 169.2624,66.5169 168.5954,66.5169 C168.0384,66.5169 167.5684,66.4779 167.1914,66.3989 C166.8154,66.3219 166.4194,66.1849 166.0124,65.9909 L166.0124,63.9739 C166.4424,64.1969 166.8914,64.3679 167.3564,64.4929 C167.8244,64.6169 168.2504,64.6789 168.6414,64.6789 C168.9784,64.6789 169.2234,64.6209 169.3794,64.5049 C169.5364,64.3879 169.6154,64.2389 169.6154,64.0549 C169.6154,63.9409 169.5834,63.8389 169.5214,63.7539 C169.4574,63.6689 169.3564,63.5809 169.2164,63.4929 C169.0764,63.4059 168.7044,63.2269 168.1034,62.9549 C167.5554,62.7079 167.1474,62.4659 166.8744,62.2339 C166.6014,62.0009 166.3994,61.7329 166.2674,61.4309 C166.1354,61.1289 166.0694,60.7739 166.0694,60.3599 C166.0694,59.5889 166.3514,58.9879 166.9114,58.5569 C167.4714,58.1249 168.2434,57.9099 169.2254,57.9099 C170.0914,57.9099 170.9754,58.1099 171.8774,58.5099 L171.1844,60.2569 C170.4004,59.8989 169.7254,59.7179 169.1554,59.7179 C168.8624,59.7179 168.6484,59.7709 168.5154,59.8739 C168.3824,59.9759 168.3144,60.1049 168.3144,60.2569 C168.3144,60.4219 168.3984,60.5679 168.5684,60.6979 C168.7404,60.8289 169.1994,61.0649 169.9534,61.4079 C170.6744,61.7329 171.1754,62.0829 171.4564,62.4549 C171.7374,62.8249 171.8774,63.2969 171.8774,63.8599" id="Fill-13" fill="#FFFFFF"></path>
                <path d="M183.5454,61.5005 L187.1594,61.5005 L187.1594,66.0135 C186.1794,66.3505 185.1004,66.5175 183.9244,66.5175 C182.6334,66.5175 181.6354,66.1435 180.9304,65.3965 C180.2274,64.6465 179.8734,63.5785 179.8734,62.1935 C179.8734,60.8405 180.2594,59.7905 181.0314,59.0385 C181.8024,58.2855 182.8844,57.9085 184.2724,57.9085 C184.8004,57.9085 185.2974,57.9595 185.7654,58.0575 C186.2334,58.1565 186.6404,58.2825 186.9884,58.4365 L186.2724,60.2115 C185.6694,59.9145 185.0044,59.7655 184.2834,59.7655 C183.6244,59.7655 183.1124,59.9805 182.7514,60.4075 C182.3914,60.8385 182.2104,61.4525 182.2104,62.2505 C182.2104,63.0335 182.3744,63.6305 182.7004,64.0395 C183.0264,64.4515 183.4984,64.6555 184.1124,64.6555 C184.4474,64.6555 184.7574,64.6235 185.0394,64.5595 L185.0394,63.2465 L183.5454,63.2465 L183.5454,61.5005 Z" id="Fill-14" fill="#FFFFFF"></path>
                <path d="M193.4624,63.355 L193.4624,66.403 L191.2004,66.403 L191.2004,58.029 L193.9434,58.029 C196.2194,58.029 197.3584,58.854 197.3584,60.502 C197.3584,61.472 196.8844,62.224 195.9374,62.754 L198.3764,66.403 L195.8104,66.403 L194.0364,63.355 L193.4624,63.355 Z M193.4624,61.656 L193.8874,61.656 C194.6784,61.656 195.0714,61.305 195.0714,60.606 C195.0714,60.03 194.6844,59.743 193.9104,59.743 L193.4624,59.743 L193.4624,61.656 Z" id="Fill-15" fill="#FFFFFF"></path>
                <path d="M209.3081,62.2046 C209.3081,63.6146 208.9631,64.6846 208.2721,65.4196 C207.5791,66.1506 206.5691,66.5176 205.2361,66.5176 C203.9231,66.5176 202.9161,66.1486 202.2131,65.4126 C201.5131,64.6756 201.1631,63.6026 201.1631,62.1926 C201.1631,60.7996 201.5121,59.7336 202.2081,59.0006 C202.9071,58.2656 203.9181,57.8966 205.2471,57.8966 C206.5801,57.8966 207.5901,58.2626 208.2771,58.9926 C208.9651,59.7216 209.3081,60.7926 209.3081,62.2046 M203.5461,62.2046 C203.5461,63.8236 204.1101,64.6336 205.2361,64.6336 C205.8081,64.6336 206.2341,64.4356 206.5101,64.0426 C206.7871,63.6496 206.9251,63.0376 206.9251,62.2046 C206.9251,61.3686 206.7861,60.7506 206.5041,60.3516 C206.2241,59.9536 205.8061,59.7526 205.2471,59.7526 C204.1141,59.7526 203.5461,60.5706 203.5461,62.2046" id="Fill-16" fill="#FFFFFF"></path>
                <path d="M220.2739,58.0298 L220.2739,63.0698 C220.2739,64.1648 219.9619,65.0148 219.3429,65.6158 C218.7219,66.2168 217.8289,66.5168 216.6599,66.5168 C215.5179,66.5168 214.6409,66.2248 214.0269,65.6408 C213.4149,65.0568 213.1089,64.2168 213.1089,63.1218 L213.1089,58.0298 L215.3829,58.0298 L215.3829,62.9428 C215.3829,63.5358 215.4929,63.9648 215.7149,64.2318 C215.9359,64.4998 216.2619,64.6338 216.6949,64.6338 C217.1579,64.6338 217.4929,64.4998 217.6999,64.2358 C217.9079,63.9688 218.0119,63.5358 218.0119,62.9308 L218.0119,58.0298 L220.2739,58.0298 Z" id="Fill-17" fill="#FFFFFF"></path>
                <path d="M230.5747,60.6919 C230.5747,61.6279 230.2987,62.3509 229.7467,62.8619 C229.1947,63.3699 228.4127,63.6259 227.3957,63.6259 L226.7597,63.6259 L226.7597,66.4019 L224.4977,66.4019 L224.4977,58.0279 L227.3957,58.0279 C228.4527,58.0279 229.2487,58.2589 229.7787,58.7209 C230.3087,59.1839 230.5747,59.8399 230.5747,60.6919 L230.5747,60.6919 Z M226.7597,61.7809 L227.1727,61.7809 C227.5117,61.7809 227.7827,61.6849 227.9827,61.4949 C228.1807,61.3029 228.2827,61.0409 228.2827,60.7039 C228.2827,60.1379 227.9697,59.8579 227.3437,59.8579 L226.7597,59.8579 L226.7597,61.7809 Z" id="Fill-18" fill="#FFFFFF"></path>
                <path d="M233.1567,33.3394 C233.1567,30.1534 232.3657,27.1904 230.7807,24.4394" id="Fill-20" fill="#FFFFFF"></path>
                <path d="M230.7808,24.439 L233.1568,33.339 C233.1568,36.543 232.3628,39.539 230.7688,42.324 C229.1778,45.118 227.0078,47.292 224.2598,48.865 C221.5148,50.433 218.4838,51.219 215.1768,51.219 C210.3088,51.219 206.1518,49.488 202.7078,46.023 C199.2628,42.558 197.5448,38.351 197.5448,33.402 C197.5448,28.092 199.4888,23.668 203.3798,20.127 C206.7888,17.056 210.7118,15.513 215.1468,15.513 C218.3478,15.513 221.3648,16.313 224.1848,17.913 C226.9998,19.522 229.2018,21.694 230.7808,24.439 Z M223.1958,37.9234 C224.0078,36.5084 224.4108,34.9844 224.4108,33.3534 C224.4108,31.7304 224.0088,30.2224 223.2008,28.8244 C222.3978,27.4274 221.2778,26.3214 219.8448,25.5044 C218.4098,24.6894 216.8758,24.2824 215.2468,24.2824 C212.9898,24.2824 210.9938,25.0664 209.2588,26.6304 C207.2778,28.4324 206.2908,30.6824 206.2908,33.3844 C206.2908,35.9024 207.1658,38.0424 208.9178,39.8064 C210.6708,41.5694 212.7848,42.4504 215.2608,42.4504 C216.9458,42.4504 218.4878,42.0514 219.8838,41.2534 C221.2808,40.4524 222.3858,39.3454 223.1958,37.9234 Z" id="Combined-Shape" fill="#FFFFFF"></path>
                <path d="M91.7456,15.9327 L102.5246,15.9327 L102.5246,21.6377 C103.6756,19.5557 105.0856,17.9587 106.7516,16.8497 C108.4196,15.7407 110.3646,15.1857 112.5876,15.1857 L113.5116,15.1857 C113.8486,15.1857 114.2346,15.2307 114.6726,15.3217 L114.6726,27.0697 C113.2436,26.2547 111.6936,25.8477 110.0276,25.8477 C107.5276,25.8477 105.6506,26.6957 104.4006,28.3937 C103.1506,30.0917 102.5246,32.5707 102.5246,35.8307 L102.5246,50.7697 L91.7456,50.7697 L91.7456,15.9327 Z" id="Fill-22" fill="#FFFFFF"></path>
                <path d="M117.1958,4.084 L127.9738,4.084 L127.9738,20.347 C129.4418,18.309 130.9308,16.941 132.4408,16.237 C133.9488,15.538 135.7158,15.186 137.7398,15.186 C141.5908,15.186 144.4998,16.397 146.4638,18.819 C148.4288,21.241 149.4118,24.512 149.4118,28.631 L149.4118,50.771 L138.6328,50.771 L138.6328,33.182 C138.6328,31.417 138.5138,29.99 138.2768,28.904 C138.0378,27.817 137.6408,26.979 137.0858,26.39 C136.1328,25.439 134.9798,24.965 133.6328,24.965 C131.8038,24.965 130.4058,25.587 129.4328,26.833 C128.4608,28.078 127.9738,29.853 127.9738,32.164 L127.9738,50.771 L117.1958,50.771 L117.1958,4.084 Z" id="Fill-23" fill="#FFFFFF"></path>
                <polygon id="Fill-24" fill="#FFFFFF" points="151.331 50.77 162.11 50.77 162.11 15.932 151.331 15.932"></polygon>
                <path d="M164.1685,15.9327 L174.9465,15.9327 L174.9465,20.3467 C176.4155,18.3087 177.9035,16.9407 179.4125,16.2387 C180.9205,15.5367 182.6885,15.1857 184.7125,15.1857 C186.8555,15.1857 188.6915,15.5827 190.2225,16.3737 C191.7495,17.1657 193.0505,18.2867 194.1205,19.7357 C194.9945,20.9137 195.5905,22.2257 195.9075,23.6737 C196.2245,25.1237 196.3845,26.7747 196.3845,28.6317 L196.3845,50.7697 L185.6055,50.7697 L185.6055,33.1817 C185.6055,31.4617 185.4965,30.0697 185.2795,29.0047 C185.0615,27.9417 184.6735,27.0937 184.1185,26.4587 C183.6405,25.9147 183.1055,25.5317 182.5095,25.3047 C181.9135,25.0787 181.2795,24.9647 180.6045,24.9647 C178.7765,24.9647 177.3785,25.5867 176.4055,26.8317 C175.4335,28.0777 174.9465,29.8547 174.9465,32.1637 L174.9465,50.7697 L164.1685,50.7697 L164.1685,15.9327 Z" id="Fill-25" fill="#FFFFFF"></path>
                <path d="M162.0981,8.9883 C162.0981,11.9313 159.7121,14.3163 156.7711,14.3163 C153.8271,14.3163 151.4411,11.9313 151.4411,8.9883 C151.4411,6.0453 153.8271,3.6603 156.7711,3.6603 C159.7121,3.6603 162.0981,6.0453 162.0981,8.9883" id="Fill-26" fill="#FFFFFF"></path>
            </g>
        </g>
    </g>
</svg>