<?xml version="1.0" encoding="UTF-8"?>
<svg width="72px" height="73px" viewBox="0 0 72 73" version="1.1" xmlns="http://www.w3.org/2000/svg" xmlns:xlink="http://www.w3.org/1999/xlink">
    <!-- Generator: Sketch 55.2 (78181) - https://sketchapp.com -->
    <title>Group 3</title>
    <desc>Created with Sketch.</desc>
    <defs>
        <polygon id="path-1" points="0 0.686 72 0.686 72 72.686 0 72.686"></polygon>
    </defs>
    <g id="Primary-Pages" stroke="none" stroke-width="1" fill="none" fill-rule="evenodd">
        <g id="Homepage" transform="translate(-84.000000, -86.000000)">
            <g id="Group-27" transform="translate(84.000000, 86.000000)">
                <g id="Group-3">
                    <mask id="mask-2" fill="white">
                        <use xlink:href="#path-1"></use>
                    </mask>
                    <g id="Clip-2"></g>
                    <path d="M38.5247228,4.15054934 C31.2994813,5.27724606 24.7463951,9.3778246 20.484462,15.3359302 C21.8030743,14.876863 23.1548089,14.5131715 24.5288155,14.248303 C27.9975253,12.4855771 31.7266454,11.5927231 35.6145243,11.5927231 C37.7566269,11.5927231 39.8941608,11.8748282 41.9717318,12.4332928 C45.3182316,12.4493803 48.5687907,13.0153141 51.6702993,14.1184542 C48.4088897,9.53352823 43.8317232,6.04714591 38.5247228,4.15054934 L38.5247228,4.15054934 Z M18.7832294,18.0363252 C18.6912863,18.2029453 18.6010565,18.3707145 18.5131109,18.5384837 C18.7718079,18.2885536 19.0356446,18.0443689 19.3046209,17.8059298 C19.129872,17.8806216 18.9556941,17.9576115 18.7832294,18.0363252 L18.7832294,18.0363252 Z M48.1027935,15.0250975 C50.9741589,16.7315173 53.4903155,19.0119147 55.4782278,21.7128843 C54.939704,20.0323193 54.2389949,18.4051876 53.3778137,16.8395331 C51.6720126,16.0512476 49.910246,15.4462442 48.1027935,15.0250975 L48.1027935,15.0250975 Z M54.711845,15.3962581 C62.1586637,19.0245548 67.65469,25.4991828 70.0691953,33.2705749 C70.1120259,32.6408657 70.1337267,32.0088584 70.1337267,31.375702 C70.1337267,16.1839691 57.8487603,3.82420373 42.7489649,3.82420373 C42.6690144,3.82420373 42.589635,3.82477828 42.5102556,3.82535283 C47.5785466,6.39072809 51.8239185,10.3970801 54.7084186,15.3928108 L54.711845,15.3962581 Z M29.3292724,2.56363636 C14.1860753,2.56363636 1.86627326,14.9584494 1.86627326,30.1938482 C1.86627326,31.5509404 1.96392709,32.8999887 2.15695046,34.2306515 C4.59201447,26.5425694 10.0971779,20.1259713 17.4526246,16.5878793 L17.4566221,16.5850065 C21.2548422,10.0259194 27.5092562,5.17267757 34.6796745,3.0876279 C32.9264741,2.73887476 31.137296,2.56363636 29.3292724,2.56363636 L29.3292724,2.56363636 Z M3.07124161,38.3139935 C4.95807357,44.4984726 9.00128492,49.8504256 14.3733879,53.3712811 L14.1392471,52.7720232 C14.100414,52.6697529 14.062152,52.5628862 14.02389,52.4571687 C13.8045972,51.8521653 13.6161424,51.2793368 13.4493885,50.7134029 L13.4493885,50.7134029 L13.3979917,50.5410373 C13.339171,50.3382204 13.2866321,50.1440218 13.2346643,49.9492486 L13.186694,49.7682647 C13.134155,49.5660223 13.0833294,49.3620563 13.0353591,49.1586649 L13.0033789,49.0207724 C12.9571218,48.8242755 12.913149,48.6277787 12.8714605,48.4301328 L12.8543283,48.3479718 C12.6024842,47.1391142 12.4243088,45.8992307 12.3243706,44.6604963 C11.3969447,42.0123855 10.92695,39.2441934 10.92695,36.4306116 C10.92695,31.8462601 12.1861705,27.3653281 14.5709799,23.4623955 C14.9438919,22.1150707 15.4121734,20.7964736 15.971827,19.5180951 C9.20287441,23.6014371 4.46866226,30.4380329 3.07124161,38.3139935 L3.07124161,38.3139935 Z M59.3878075,43.2011339 C59.3878075,46.7173929 58.7790415,50.157811 57.5786418,53.425289 C57.3941846,53.9280221 57.1943083,54.4267334 56.9812973,54.9214227 C63.0798077,51.1966013 67.4896493,45.2551577 69.2771142,38.2393017 C68.096702,29.9019757 63.2899634,22.6568734 56.1994956,18.343136 C57.4170276,21.1285647 58.1896921,24.0737189 58.5032123,27.1337836 C59.6967591,30.0990471 60.3020987,33.2257598 60.3020987,36.4306116 C60.3020987,38.684005 59.9942892,40.931653 59.3866654,43.1126528 L59.3878075,43.2011339 Z M21.1686099,56.5830275 L21.2411364,56.6048605 C20.9401799,56.3871052 20.6529291,56.16935 20.3685338,55.9441255 L20.3102841,55.8987359 C19.967068,55.6235254 19.6564032,55.3632533 19.3531623,55.0949375 L19.3017656,55.0512715 C18.8203493,54.6232302 18.3566364,54.1779523 17.9214772,53.7275034 L17.7747109,53.5729489 C17.5365726,53.3224442 17.3058583,53.0707903 17.0825679,52.813391 C17.0203208,52.7444447 16.9523628,52.664582 16.8832627,52.5829956 C16.6850997,52.3508765 16.489221,52.1124374 16.2973397,51.8699764 L16.0843287,51.5976387 C15.9084376,51.3695415 15.7388283,51.1391461 15.5720744,50.9064525 L15.3761957,50.6295183 C15.4972636,51.0150428 15.6251844,51.3936727 15.7582449,51.7602369 C15.7599581,51.7648333 15.7611003,51.7682807 15.7628135,51.7723025 L16.6137153,53.8590758 C16.6822443,54.009034 16.7541998,54.1607157 16.8261552,54.3106738 L16.9397992,54.5479639 C17.0077571,54.6870055 17.0774283,54.8260471 17.1476705,54.9650887 C17.2761624,55.0282894 17.4046543,55.0914902 17.5337172,55.1535418 L17.752439,55.2558121 C17.7741398,55.2655795 17.7958407,55.2759214 17.8175415,55.2856888 C17.9140532,55.3310784 18.0094227,55.3747444 18.1042212,55.4172612 C18.1047923,55.4178358 18.1059344,55.4184103 18.1065055,55.4184103 C18.1093609,55.420134 18.1127873,55.4218576 18.1162138,55.4230067 C18.1184981,55.4241558 18.1207824,55.425305 18.1224956,55.4258795 C18.1242088,55.4270286 18.1264931,55.4276032 18.1282063,55.4287523 C18.1316328,55.4299014 18.1344882,55.4310505 18.1379146,55.4327741 C18.1390568,55.4333487 18.1401989,55.4339232 18.1413411,55.4339232 C18.1447675,55.4362214 18.1487651,55.4379451 18.1527626,55.4396688 C18.1533337,55.4396688 18.1539047,55.4396688 18.1544758,55.4402433 C18.1584733,55.441967 18.1630419,55.4442652 18.1676105,55.4459888 C18.1676105,55.4459888 18.1676105,55.4459888 18.1676105,55.4465634 C18.1721791,55.448287 18.1767477,55.4505852 18.1813163,55.4523089 C18.1813163,55.4528835 18.1813163,55.4528835 18.1813163,55.4528835 C18.1858849,55.4540326 18.1910246,55.4563308 18.1950221,55.458629 L18.4588588,55.5735394 C18.5924904,55.6321437 18.7318327,55.690748 18.8717461,55.7487778 L19.137867,55.8585173 C19.2846333,55.9176961 19.4251178,55.971704 19.5656022,56.0257119 L19.8357207,56.1291313 C20.0458764,56.2066958 20.264027,56.2848349 20.4827488,56.3601013 L21.1686099,56.5830275 Z M56.9293295,48.939186 C56.567839,49.5602768 56.1783658,50.1670039 55.7620521,50.7587926 L55.7260743,50.8087786 C55.274925,51.447106 54.7746633,52.086008 54.2487032,52.6956078 L54.1967354,52.7559358 C53.6776281,53.3540445 53.1196878,53.9372149 52.5394756,54.4882104 L52.489221,54.5364728 C52.299053,54.7151585 52.1066007,54.8921206 51.9107219,55.0650608 L51.8461905,55.1213669 C51.2676914,55.6309946 50.6515015,56.1233858 50.0153238,56.5853257 L49.8971113,56.6715085 C49.2603626,57.1254047 48.6207586,57.5385077 47.9691619,57.9211594 L47.7772807,58.0308989 C47.3998001,58.247505 47.0120402,58.4554929 46.6197116,58.6531388 C47.1159758,58.5824689 47.61224,58.4974352 48.1022224,58.4003359 C48.5893495,58.3032366 49.0827583,58.1906243 49.5698853,58.0642229 C51.1477657,57.6568654 52.6970923,57.1041463 54.179032,56.4192801 C54.8157807,55.2454701 55.3697235,54.020525 55.8277257,52.7743214 C56.2885833,51.5212232 56.6563556,50.2405465 56.9293295,48.939186 L56.9293295,48.939186 Z M27.2688336,57.7930343 C29.9368962,58.8525084 32.7448722,59.3897146 35.6145243,59.3897146 C37.2318089,59.3897146 38.8588017,59.2133271 40.4503879,58.8668722 C40.9055347,58.7663256 41.3686765,58.6485424 41.8266787,58.5175445 L42.0528244,58.4537692 C42.2595536,58.3917176 42.4737068,58.3256441 42.6872888,58.2561233 L42.8323419,58.2061373 C43.2612192,58.0613501 43.6741065,57.9090938 44.0641508,57.7516665 L44.2137724,57.6919131 C44.4113644,57.6097521 44.6169514,57.5218457 44.8225384,57.4304919 L44.9955742,57.3512037 C45.633465,57.0610549 46.257079,56.7416039 46.8589921,56.396298 L47.0428782,56.291155 C47.6333698,55.9447001 48.2261457,55.5608993 48.7909389,55.1587128 L48.920573,55.0650608 C49.5127778,54.6352958 50.0821396,54.1796759 50.6160948,53.7085432 L50.6640651,53.6671754 C50.861086,53.4936607 51.0375482,53.331637 51.2128682,53.166166 L51.2711179,53.1104344 C51.7953648,52.6122977 52.3110455,52.0739424 52.7913197,51.5206487 L52.8455718,51.457448 C53.3258459,50.9012815 53.7889878,50.3094928 54.2150098,49.7067876 L54.2578404,49.6470342 C55.7283586,47.5579627 56.8425261,45.2293029 57.5489459,42.7501104 L57.5552277,42.7300011 C58.1394375,40.6754027 58.4358254,38.5553054 58.4358254,36.4306116 C58.4358254,33.4262785 57.8601818,30.4954881 56.7254557,27.7198268 L56.7248846,27.7192522 C54.0408319,21.1607397 48.38776,16.1357067 41.6016752,14.2770306 L41.5799743,14.2712851 C39.6314662,13.7398244 37.6247085,13.4703594 35.6145243,13.4703594 C31.9807738,13.4703594 28.497216,14.3143765 25.2603626,15.9800031 L25.2580783,15.9811522 C21.5512302,17.8898144 18.4285918,20.779237 16.2270975,24.3374384 L16.2253843,24.3403111 C13.9799172,27.9720551 12.7932232,32.1524964 12.7932232,36.4306116 C12.7932232,39.0695295 13.240375,41.6647815 14.123257,44.1462721 C14.1752249,44.2922084 14.229477,44.43757 14.2848713,44.5817826 C14.3356969,44.7162278 14.3865226,44.8449275 14.4379194,44.9736272 L14.4681864,45.048319 C14.549279,45.2517104 14.6360824,45.4556764 14.7251701,45.660217 C14.7839909,45.7929385 14.846238,45.930831 14.9101984,46.0687235 C15.0067101,46.2784351 15.1060772,46.4852738 15.2077285,46.6892398 C15.2768286,46.8265578 15.3453576,46.9627266 15.4155999,47.098321 C15.5075429,47.2729848 15.6034836,47.4493723 15.6999952,47.6240361 C15.7873697,47.7791652 15.8775996,47.9400398 15.971827,48.0986162 C16.0517775,48.2347851 16.131728,48.3663575 16.2116785,48.4967808 C16.34531,48.7128124 16.4606672,48.8943709 16.5800219,49.0753548 C16.6771046,49.2218656 16.7741874,49.36378 16.8712702,49.5056944 L17.0865655,49.8096324 C17.2401846,50.0233658 17.3960881,50.2359501 17.5577024,50.4456617 L17.7587208,50.7019119 C17.9346119,50.9242636 18.1156427,51.144317 18.3000999,51.3609232 C18.361205,51.4321677 18.4194546,51.5011139 18.4799886,51.5694856 C18.6935706,51.8148194 18.9054395,52.0452148 19.1201637,52.2715883 L19.2543663,52.4129281 C19.662685,52.8357985 20.0921334,53.2483269 20.5370009,53.6441934 L20.5918241,53.6907321 C20.8659401,53.9326185 21.1531909,54.1739304 21.4455813,54.4083477 L21.5112549,54.4594828 C21.8150669,54.7002202 22.1103127,54.9231464 22.4112692,55.1386034 L21.9292819,55.9458492 L22.4683767,55.1793966 C23.9548851,56.2377217 25.5641746,57.1150628 27.2528435,57.7867142 L27.2688336,57.7930343 Z M18.7689526,57.729259 C23.0588683,64.1619446 29.8780755,68.5842724 37.5230572,69.781639 C43.5530386,68.0757937 48.8743159,64.2647895 52.4949317,59.1294425 C51.6857184,59.4172931 50.8633703,59.668947 50.0341693,59.8832549 C49.5133489,60.0177001 48.9851045,60.1389306 48.464284,60.2417754 C47.6676343,60.4009264 46.8567078,60.5273279 46.0537762,60.6175325 C45.5146814,60.6790096 44.9618807,60.7255483 44.4130776,60.7565742 C43.4776567,60.8077093 42.5559416,60.815753 41.6507876,60.7812799 C41.3384096,60.7697889 41.0254604,60.7519777 40.7136535,60.7301448 C39.0346928,61.0863671 37.3197544,61.267351 35.6145243,61.267351 C32.5489935,61.267351 29.5479941,60.700268 26.693761,59.5833387 C26.541284,59.5695495 26.389378,59.553462 26.237472,59.5373745 L26.0410222,59.5166907 C25.8611336,59.4965813 25.6766763,59.4741738 25.491648,59.4494681 L25.278637,59.4201659 C25.0947509,59.3943111 24.9142912,59.3678817 24.7332604,59.3403032 L24.547661,59.3087028 C23.9560272,59.2116035 23.3643935,59.0943948 22.782468,58.9616733 L22.5403322,58.9059417 C22.3832865,58.8680213 22.2313806,58.8301009 22.0800457,58.7910313 L21.7728073,58.710594 C21.6311807,58.6726736 21.4895541,58.6341786 21.3490696,58.5939599 L21.0389759,58.5037553 C20.8779327,58.456642 20.7465854,58.4175724 20.6152382,58.3762047 L19.8814067,58.137191 C19.6466949,58.0567537 19.4154095,57.9740182 19.1875506,57.8901336 L18.9037263,57.7809687 C18.8586113,57.7637321 18.8140675,57.7464956 18.7689526,57.729259 L18.7689526,57.729259 Z M55.5142055,57.8625551 C52.4252606,63.2731125 47.6619236,67.5765079 42.0585352,70.1143047 C56.9059154,69.9879032 69.0087089,58.0642229 69.5380955,43.2246905 C66.7712369,49.5798116 61.8457146,54.7668682 55.518203,57.8591078 L55.5142055,57.8625551 Z M2.6526436,42.4674308 C2.6457907,42.71219 2.64236425,42.9569492 2.64236425,43.2011339 C2.64236425,58.423318 14.952458,70.8083636 30.0825203,70.8083636 C31.0681959,70.8083636 32.050445,70.7555048 33.024699,70.6515109 C25.7217913,68.3573243 19.4730881,63.2415121 15.7753771,56.3721669 L15.7708085,56.3669959 C9.97611003,53.3218696 5.35211536,48.3853177 2.6526436,42.4674308 L2.6526436,42.4674308 Z M30.0825203,72.686 C13.9228097,72.686 0.776662066,59.4592354 0.776662066,43.2011339 C0.776662066,41.6010062 0.905153952,39.9974312 1.1581402,38.4329257 L1.15756912,38.4312021 L1.1581402,38.430053 C0.389473183,35.7664293 0,32.9970881 0,30.1938482 C0,13.9231065 13.156998,0.686 29.3292724,0.686 C32.537572,0.686 35.6899062,1.20367147 38.7028982,2.2257997 L38.7046114,2.22522515 L38.7063247,2.2257997 C40.0357874,2.04079392 41.3943749,1.94714192 42.7489649,1.94714192 C58.8778375,1.94714192 72,15.1486262 72,31.375702 C72,33.7302166 71.7224575,36.0732402 71.1753676,38.3421465 L71.1753676,38.3432956 L71.1747966,38.3455938 C71.3386951,39.620525 71.4220721,40.9207365 71.4220721,42.2123296 C71.4220721,58.633604 58.143435,71.9930901 41.821539,71.9930901 C40.4246895,71.9930901 39.0181316,71.8936926 37.6384143,71.6971958 L37.6367011,71.6977703 L37.6349879,71.6971958 C35.1827916,72.3539089 32.6432209,72.686 30.0825203,72.686 L30.0825203,72.686 Z" id="Fill-1" fill="#FFFFFF" mask="url(#mask-2)"></path>
                </g>
            </g>
        </g>
    </g>
</svg>